# xmcd
#
# Track frame offsets: 
#        150
#        16740
#        28697
#        50322
#        101265
#        116920
#        133287
#        147607
#        172697
#        185150
#        199272
#        220875
#        240070
#
# Disc length: 3468 seconds
#
# Revision: 2
# Processed by: cddbd v1.5.2PL0 Copyright (c) Steve Scherf et al.
# Submitted via: ExactAudioCopy v0.99pb4
#
DISCID=b40d8a0d
DTITLE=Joe Stanley - King of the Honky-Tonk Sax
DYEAR=1995
DGENRE=Blues
TTITLE0=Rambunctious
TTITLE1=Pennies from Heaven
TTITLE2=I need You
TTITLE3=Blues for Danny
TTITLE4=Pack Your Suitcase
TTITLE5=Jambalaya
TTITLE6=Evening
TTITLE7=Chicken-Fried Tenor
TTITLE8=The Lady is a Tramp
TTITLE9=I'm So Blue
TTITLE10=Please Release Me
TTITLE11=I Can't Stop Loving You
TTITLE12=Rainbow Ride
EXTD=YEAR: 1995
EXTT0=
EXTT1=
EXTT2=
EXTT3=
EXTT4=
EXTT5=
EXTT6=
EXTT7=
EXTT8=
EXTT9=
EXTT10=
EXTT11=
EXTT12=
PLAYORDER=
